<svg xmlns="http://www.w3.org/2000/svg" width="1600" height="1100" viewBox="0 0 1600 1100"><defs><filter id="s"><feDropShadow dx="0" dy="28" stdDeviation="26" flood-opacity=".22"/></filter><linearGradient id="g" x1="0" y1="0" x2="1" y2="1"><stop stop-color="#0d6e99"/><stop offset="1" stop-color="#0b355a"/></linearGradient></defs><rect width="1600" height="1100" fill="url(#g)"/><circle cx="1340" cy="150" r="300" fill="#55d7df" opacity=".16"/><text x="92" y="90" fill="#fff" font-family="Arial" font-size="34" font-weight="700">LINGIDOO / MENTORIUM</text><text x="92" y="138" fill="#b8dbe8" font-family="Arial" font-size="18">Translation service UI / UX</text><text x="92" y="1022" fill="#7be4e7" font-family="Arial" font-size="18" font-weight="700">lingidoo.com</text><g transform="translate(92 230)"><text x="0" y="90" fill="#fff" font-family="Arial" font-size="78" font-weight="800" letter-spacing="-4">lingidoo</text><text x="4" y="135" fill="#b8dbe8" font-family="Arial" font-size="20">Language services without the friction.</text><g transform="translate(0 220)" filter="url(#s)"><rect width="360" height="390" rx="24" fill="#f5fbfd"/><text x="28" y="54" fill="#0c4b70" font-family="Arial" font-size="24" font-weight="700">Translate a document</text><text x="28" y="88" fill="#6f8796" font-family="Arial" font-size="15">Simple order. Clear next step.</text><rect x="28" y="130" width="304" height="70" rx="14" fill="#e6f4f8"/><text x="50" y="172" fill="#4d6b7d" font-family="Arial" font-size="16">German → English</text><rect x="28" y="220" width="304" height="70" rx="14" fill="#e6f4f8"/><text x="50" y="262" fill="#4d6b7d" font-family="Arial" font-size="16">Upload your file</text><rect x="28" y="314" width="176" height="48" rx="24" fill="#0d6e99"/><text x="63" y="345" fill="#fff" font-family="Arial" font-size="15">Get a quote →</text></g><g transform="translate(460 0)" filter="url(#s)"><rect width="870" height="665" rx="30" fill="#f7fbfc"/><text x="34" y="50" fill="#0b4d73" font-family="Arial" font-size="26" font-weight="800">lingidoo</text><text x="560" y="50" fill="#67808f" font-family="Arial" font-size="15">Services  Process  About  Contact</text><text x="42" y="170" fill="#0b4d73" font-family="Arial" font-size="50" font-weight="800">Translation that feels straightforward.</text><text x="42" y="215" fill="#67808f" font-family="Arial" font-size="18">Choose a service, understand the process, send the file.</text><g transform="translate(42 270)"><rect width="240" height="260" rx="18" fill="#e8f5f7"/><rect x="260" width="240" height="260" rx="18" fill="#eaf0fb"/><rect x="520" width="240" height="260" rx="18" fill="#edf7ef"/><circle cx="120" cy="92" r="50" fill="#55d7df"/><circle cx="380" cy="92" r="50" fill="#789bea"/><circle cx="640" cy="92" r="50" fill="#86c997"/><text x="26" y="188" fill="#0b4d73" font-family="Arial" font-size="18" font-weight="700">Documents</text><text x="286" y="188" fill="#35558c" font-family="Arial" font-size="18" font-weight="700">Websites</text><text x="546" y="188" fill="#497455" font-family="Arial" font-size="18" font-weight="700">Business</text></g></g></g></svg>