<svg xmlns="http://www.w3.org/2000/svg" width="1600" height="1100" viewBox="0 0 1600 1100"><defs><filter id="shadow" x="-30%" y="-30%" width="160%" height="160%"><feDropShadow dx="0" dy="26" stdDeviation="28" flood-color="#000" flood-opacity=".28"/></filter><filter id="soft" x="-20%" y="-20%" width="140%" height="140%"><feGaussianBlur stdDeviation="32"/></filter><linearGradient id="yg" x1="0" y1="0" x2="1" y2="1"><stop stop-color="#19a764"/><stop offset="1" stop-color="#065c3a"/></linearGradient></defs><rect width="1600" height="1100" fill="url(#yg)"/><circle cx="1380" cy="170" r="280" fill="#dcff64" opacity=".15" filter="url(#soft)"/><text x="92" y="90" fill="#ffffff" font-family="Arial, Helvetica, sans-serif" font-size="34" font-weight="700" letter-spacing="-1">YADS</text><text x="92" y="138" fill="#ffffffb3" font-family="Arial, Helvetica, sans-serif" font-size="18">Fresh vegetable delivery</text><text x="92" y="1022" fill="#dfff65" font-family="Arial, Helvetica, sans-serif" font-size="18" font-weight="600">yads.market</text><g transform="translate(95 230)"><text x="0" y="90" fill="#f4ffe9" font-family="Arial" font-size="92" font-weight="800" letter-spacing="-6">YADS</text><text x="4" y="137" fill="#d9f6e8" font-family="Arial" font-size="22">fresh food, zero fuss.</text><g transform="translate(0 220)"><path d="M78 38 C92 4 134 -6 153 18 C125 31 112 54 113 85 C91 80 72 64 78 38Z" fill="#dfff65"/><circle cx="88" cy="128" r="52" fill="#ff6a53"/><path d="M65 79 L95 48 L123 86Z" fill="#dfff65"/><rect x="20" y="210" width="265" height="355" rx="26" fill="#f8f4e8" filter="url(#shadow)"/><text x="48" y="264" fill="#0b6a43" font-family="Arial" font-size="32" font-weight="800">YADS</text><text x="48" y="302" fill="#3b594a" font-family="Arial" font-size="15">VEG BOX / WEEKLY</text><circle cx="153" cy="405" r="86" fill="#dfff65"/><path d="M118 410 C132 350 174 345 193 365 C169 377 158 397 159 427 C141 426 125 419 118 410Z" fill="#0f8a55"/></g><g transform="translate(425 35)" filter="url(#shadow)"><rect width="880" height="620" rx="38" fill="#f8f5eb"/><rect width="880" height="86" rx="38" fill="#0b6a43"/><text x="42" y="55" fill="#fff" font-family="Arial" font-size="28" font-weight="800">YADS</text><text x="555" y="55" fill="#d6f1e4" font-family="Arial" font-size="16">Boxes   Produce   About   Cart</text><text x="52" y="186" fill="#0c5f3d" font-family="Arial" font-size="54" font-weight="800">Fresh from nearby farms.</text><text x="52" y="230" fill="#557267" font-family="Arial" font-size="18">Vegetables picked this week, delivered on your schedule.</text><g transform="translate(52 290)"><rect width="230" height="250" rx="22" fill="#e3f0b5"/><rect x="258" width="230" height="250" rx="22" fill="#ffd8ce"/><rect x="516" width="230" height="250" rx="22" fill="#d7eee4"/><circle cx="115" cy="105" r="58" fill="#8bbf48"/><circle cx="373" cy="105" r="58" fill="#ff6a53"/><circle cx="631" cy="105" r="58" fill="#15925b"/><text x="30" y="208" fill="#24513c" font-family="Arial" font-size="17">Green box</text><text x="288" y="208" fill="#65443d" font-family="Arial" font-size="17">Roots box</text><text x="546" y="208" fill="#24513c" font-family="Arial" font-size="17">Family box</text></g></g></g></svg>